<svg width="256" height="256" viewBox="0 0 256 256" fill="none" xmlns="http://www.w3.org/2000/svg">
<g clip-path="url(#clip0_1_5)">
<rect width="256" height="256" fill="white"/>
<rect width="256" height="256" rx="35" fill="#F7DF1E"/>
<path d="M140.364 154.909H159.818V219.818C159.818 225.818 158.47 231.03 155.773 235.455C153.106 239.879 149.394 243.288 144.636 245.682C139.879 248.076 134.348 249.273 128.045 249.273C122.439 249.273 117.348 248.288 112.773 246.318C108.227 244.318 104.621 241.288 101.955 237.227C99.2879 233.136 97.9697 228 98 221.818H117.591C117.652 224.273 118.152 226.379 119.091 228.136C120.061 229.864 121.379 231.197 123.045 232.136C124.742 233.045 126.742 233.5 129.045 233.5C131.47 233.5 133.515 232.985 135.182 231.955C136.879 230.894 138.167 229.348 139.045 227.318C139.924 225.288 140.364 222.788 140.364 219.818V154.909ZM226.591 181.682C226.227 178.015 224.667 175.167 221.909 173.136C219.152 171.106 215.409 170.091 210.682 170.091C207.47 170.091 204.758 170.545 202.545 171.455C200.333 172.333 198.636 173.561 197.455 175.136C196.303 176.712 195.727 178.5 195.727 180.5C195.667 182.167 196.015 183.621 196.773 184.864C197.561 186.106 198.636 187.182 200 188.091C201.364 188.97 202.939 189.742 204.727 190.409C206.515 191.045 208.424 191.591 210.455 192.045L218.818 194.045C222.879 194.955 226.606 196.167 230 197.682C233.394 199.197 236.333 201.061 238.818 203.273C241.303 205.485 243.227 208.091 244.591 211.091C245.985 214.091 246.697 217.53 246.727 221.409C246.697 227.106 245.242 232.045 242.364 236.227C239.515 240.379 235.394 243.606 230 245.909C224.636 248.182 218.167 249.318 210.591 249.318C203.076 249.318 196.53 248.167 190.955 245.864C185.409 243.561 181.076 240.152 177.955 235.636C174.864 231.091 173.242 225.47 173.091 218.773H192.136C192.348 221.894 193.242 224.5 194.818 226.591C196.424 228.652 198.561 230.212 201.227 231.273C203.924 232.303 206.97 232.818 210.364 232.818C213.697 232.818 216.591 232.333 219.045 231.364C221.53 230.394 223.455 229.045 224.818 227.318C226.182 225.591 226.864 223.606 226.864 221.364C226.864 219.273 226.242 217.515 225 216.091C223.788 214.667 222 213.455 219.636 212.455C217.303 211.455 214.439 210.545 211.045 209.727L200.909 207.182C193.061 205.273 186.864 202.288 182.318 198.227C177.773 194.167 175.515 188.697 175.545 181.818C175.515 176.182 177.015 171.258 180.045 167.045C183.106 162.833 187.303 159.545 192.636 157.182C197.97 154.818 204.03 153.636 210.818 153.636C217.727 153.636 223.758 154.818 228.909 157.182C234.091 159.545 238.121 162.833 241 167.045C243.879 171.258 245.364 176.136 245.455 181.682H226.591Z" fill="black"/>
</g>
<defs>
<clipPath id="clip0_1_5">
<rect width="256" height="256" fill="white"/>
</clipPath>
</defs>
</svg>
