<svg width="256" height="256" viewBox="0 0 256 256" fill="none" xmlns="http://www.w3.org/2000/svg">
<g clip-path="url(#clip0_4_15)">
<rect width="256" height="256" fill="white"/>
<rect width="256" height="256" rx="35" fill="black"/>
<path d="M186.591 142.682C186.227 139.015 184.667 136.167 181.909 134.136C179.152 132.106 175.409 131.091 170.682 131.091C167.47 131.091 164.758 131.545 162.545 132.455C160.333 133.333 158.636 134.561 157.455 136.136C156.303 137.712 155.727 139.5 155.727 141.5C155.667 143.167 156.015 144.621 156.773 145.864C157.561 147.106 158.636 148.182 160 149.091C161.364 149.97 162.939 150.742 164.727 151.409C166.515 152.045 168.424 152.591 170.455 153.045L178.818 155.045C182.879 155.955 186.606 157.167 190 158.682C193.394 160.197 196.333 162.061 198.818 164.273C201.303 166.485 203.227 169.091 204.591 172.091C205.985 175.091 206.697 178.53 206.727 182.409C206.697 188.106 205.242 193.045 202.364 197.227C199.515 201.379 195.394 204.606 190 206.909C184.636 209.182 178.167 210.318 170.591 210.318C163.076 210.318 156.53 209.167 150.955 206.864C145.409 204.561 141.076 201.152 137.955 196.636C134.864 192.091 133.242 186.47 133.091 179.773H152.136C152.348 182.894 153.242 185.5 154.818 187.591C156.424 189.652 158.561 191.212 161.227 192.273C163.924 193.303 166.97 193.818 170.364 193.818C173.697 193.818 176.591 193.333 179.045 192.364C181.53 191.394 183.455 190.045 184.818 188.318C186.182 186.591 186.864 184.606 186.864 182.364C186.864 180.273 186.242 178.515 185 177.091C183.788 175.667 182 174.455 179.636 173.455C177.303 172.455 174.439 171.545 171.045 170.727L160.909 168.182C153.061 166.273 146.864 163.288 142.318 159.227C137.773 155.167 135.515 149.697 135.545 142.818C135.515 137.182 137.015 132.258 140.045 128.045C143.106 123.833 147.303 120.545 152.636 118.182C157.97 115.818 164.03 114.636 170.818 114.636C177.727 114.636 183.758 115.818 188.909 118.182C194.091 120.545 198.121 123.833 201 128.045C203.879 132.258 205.364 137.136 205.455 142.682H186.591ZM239.648 115.909V209H219.966V115.909H239.648Z" fill="white"/>
</g>
<defs>
<clipPath id="clip0_4_15">
<rect width="256" height="256" fill="white"/>
</clipPath>
</defs>
</svg>
