<svg width="256" height="256" viewBox="0 0 256 256" fill="none" xmlns="http://www.w3.org/2000/svg">
<g clip-path="url(#clip0_1_4)">
<rect width="256" height="256" fill="white"/>
<rect width="256" height="256" rx="35" fill="#007ACC"/>
<path d="M91.5455 171.136V154.909H168V171.136H139.5V248H120.045V171.136H91.5455ZM231.091 181.682C230.727 178.015 229.167 175.167 226.409 173.136C223.652 171.106 219.909 170.091 215.182 170.091C211.97 170.091 209.258 170.545 207.045 171.455C204.833 172.333 203.136 173.561 201.955 175.136C200.803 176.712 200.227 178.5 200.227 180.5C200.167 182.167 200.515 183.621 201.273 184.864C202.061 186.106 203.136 187.182 204.5 188.091C205.864 188.97 207.439 189.742 209.227 190.409C211.015 191.045 212.924 191.591 214.955 192.045L223.318 194.045C227.379 194.955 231.106 196.167 234.5 197.682C237.894 199.197 240.833 201.061 243.318 203.273C245.803 205.485 247.727 208.091 249.091 211.091C250.485 214.091 251.197 217.53 251.227 221.409C251.197 227.106 249.742 232.045 246.864 236.227C244.015 240.379 239.894 243.606 234.5 245.909C229.136 248.182 222.667 249.318 215.091 249.318C207.576 249.318 201.03 248.167 195.455 245.864C189.909 243.561 185.576 240.152 182.455 235.636C179.364 231.091 177.742 225.47 177.591 218.773H196.636C196.848 221.894 197.742 224.5 199.318 226.591C200.924 228.652 203.061 230.212 205.727 231.273C208.424 232.303 211.47 232.818 214.864 232.818C218.197 232.818 221.091 232.333 223.545 231.364C226.03 230.394 227.955 229.045 229.318 227.318C230.682 225.591 231.364 223.606 231.364 221.364C231.364 219.273 230.742 217.515 229.5 216.091C228.288 214.667 226.5 213.455 224.136 212.455C221.803 211.455 218.939 210.545 215.545 209.727L205.409 207.182C197.561 205.273 191.364 202.288 186.818 198.227C182.273 194.167 180.015 188.697 180.045 181.818C180.015 176.182 181.515 171.258 184.545 167.045C187.606 162.833 191.803 159.545 197.136 157.182C202.47 154.818 208.53 153.636 215.318 153.636C222.227 153.636 228.258 154.818 233.409 157.182C238.591 159.545 242.621 162.833 245.5 167.045C248.379 171.258 249.864 176.136 249.955 181.682H231.091Z" fill="white"/>
</g>
<defs>
<clipPath id="clip0_1_4">
<rect width="256" height="256" fill="white"/>
</clipPath>
</defs>
</svg>
