<svg width="32" height="32" viewBox="0 0 32 32" fill="none" xmlns="http://www.w3.org/2000/svg">
<g clip-path="url(#clip0_3_11)">
<rect width="32" height="32" fill="white"/>
<path d="M0 10C0 4.47715 4.47715 0 10 0H22C27.5228 0 32 4.47715 32 10V22C32 27.5228 27.5228 32 22 32H10C4.47715 32 0 27.5228 0 22V10Z" fill="black"/>
<path d="M16.1548 17.6378C16.098 17.0649 15.8542 16.6198 15.4233 16.3026C14.9924 15.9853 14.4077 15.8267 13.669 15.8267C13.1671 15.8267 12.7434 15.8977 12.3977 16.0398C12.0521 16.1771 11.7869 16.3688 11.6023 16.6151C11.4223 16.8613 11.3324 17.1406 11.3324 17.4531C11.3229 17.7135 11.3774 17.9408 11.4957 18.1349C11.6188 18.3291 11.7869 18.4972 12 18.6392C12.2131 18.7765 12.4593 18.8973 12.7386 19.0014C13.018 19.1009 13.3163 19.1861 13.6335 19.2571L14.9403 19.5696C15.5748 19.7116 16.1572 19.901 16.6875 20.1378C17.2178 20.3745 17.6771 20.6657 18.0653 21.0114C18.4536 21.357 18.7543 21.7642 18.9673 22.233C19.1851 22.7017 19.2964 23.2391 19.3011 23.8452C19.2964 24.7353 19.0691 25.5071 18.6193 26.1605C18.1742 26.8092 17.5303 27.3134 16.6875 27.6733C15.8494 28.0284 14.8385 28.206 13.6548 28.206C12.4806 28.206 11.4579 28.026 10.5866 27.6662C9.72017 27.3063 9.04309 26.7737 8.5554 26.0682C8.07244 25.358 7.81913 24.4796 7.79545 23.4332H10.7713C10.8045 23.9209 10.9441 24.3281 11.1903 24.6548C11.4413 24.9768 11.7751 25.2206 12.1918 25.3864C12.6132 25.5473 13.089 25.6278 13.6193 25.6278C14.1402 25.6278 14.5923 25.5521 14.9759 25.4006C15.3641 25.2491 15.6648 25.0384 15.8778 24.7685C16.0909 24.4986 16.1974 24.1884 16.1974 23.8381C16.1974 23.5114 16.1004 23.2367 15.9062 23.0142C15.7169 22.7917 15.4375 22.6023 15.0682 22.446C14.7036 22.2898 14.2562 22.1477 13.7259 22.0199L12.142 21.6222C10.9157 21.3239 9.94744 20.8575 9.23722 20.223C8.52699 19.5885 8.17424 18.7339 8.17898 17.6591C8.17424 16.7784 8.40862 16.009 8.8821 15.3509C9.36032 14.6927 10.0161 14.179 10.8494 13.8097C11.6828 13.4403 12.6297 13.2557 13.6903 13.2557C14.7699 13.2557 15.7121 13.4403 16.517 13.8097C17.3267 14.179 17.9564 14.6927 18.4062 15.3509C18.8561 16.009 19.0881 16.7713 19.1023 17.6378H16.1548ZM24.445 13.4545V28H21.3697V13.4545H24.445Z" fill="white"/>
</g>
<defs>
<clipPath id="clip0_3_11">
<rect width="32" height="32" fill="white"/>
</clipPath>
</defs>
</svg>
